#!OML:ASF H:\MichaelJackson\Top Level 1\Subject 1\Session 1\male.ASF
:FULLY-SPECIFIED
:DEGREES
593
root 2.48112 16.6063 6.58741 -14.4446 22.4479 -12.1314
lowerback 9.8161 -1.77444 -3.04873
upperback 2.72887 -2.50082 4.32979
thorax -2.32498 -1.2449 6.54408
lowerneck -10.0158 -0.626897 7.86682
upperneck 11.7465 -1.27722 -5.87369
head 5.07875 -0.672416 -3.21658
rclavicle 1.2629e-014 2.50469e-014
rhumerus -36.6005 17.2119 -86.048
rradius 82.3513
rwrist 15.7255
rhand -31.5136 -25.5043
rfingers 7.12502
rthumb -4.77904 304.57
lclavicle 1.2629e-014 2.50469e-014
lhumerus -47.0705 1.46684 83.3149
lradius 36.3317
lwrist 9.06491
lhand -14.7419 1.56401
lfingers 7.12502
lthumb 11.4137 31.2333
rfemur -53.8691 18.6522 -20.5066
rtibia 26.1061
rfoot 9.33269 -13.7897
rtoes 39.349
lfemur -14.0499 19.763 -12.5888
ltibia 47.3139
lfoot -26.2357 13.017
ltoes 31.095
594
root 2.48268 16.5979 6.66573 -15.3273 23.6959 -13.0335
lowerback 10.3703 -1.88943 -2.69305
upperback 2.77165 -2.60593 4.67823
thorax -2.571 -1.29069 6.75121
lowerneck -10.245 -0.755164 7.64423
upperneck 11.5644 -1.40696 -6.10848
head 5.05054 -0.766404 -3.26277
rclavicle 6.85062e-014 -1.59028e-014
rhumerus -36.1051 17.4867 -86.21
rradius 82.2814
rwrist 15.7003
rhand -31.2382 -25.3194
rfingers 7.12502
rthumb -4.51314 304.749
lclavicle 6.85062e-014 -1.59028e-014
lhumerus -46.3041 1.32907 83.809
lradius 36.404
lwrist 8.84384
lhand -14.6242 1.3197
lfingers 7.12502
lthumb 11.5272 30.9827
rfemur -53.2779 15.7928 -18.8954
rtibia 25.3305
rfoot 8.58789 -11.1416
rtoes 33.1136
lfemur -13.6913 18.6185 -11.7632
ltibia 47.7083
lfoot -26.3439 13.0335
ltoes 30.1568
595
root 2.47812 16.5855 6.74881 -16.3792 24.8466 -14.016
lowerback 10.9748 -1.94703 -2.39074
upperback 2.87939 -2.6328 5.0638
thorax -2.78202 -1.29922 7.02378
lowerneck -10.4629 -0.917583 7.43014
upperneck 11.3452 -1.58536 -6.33268
head 5.00564 -0.883011 -3.30961
rclavicle 2.35715e-014 -1.11319e-014
rhumerus -35.5428 17.7888 -86.3272
rradius 82.1217
rwrist 15.7351
rhand -31.046 -24.999
rfingers 7.12502
rthumb -4.3276 305.065
lclavicle 2.35715e-014 -1.11319e-014
lhumerus -45.4955 1.18861 84.3395
lradius 36.4686
lwrist 8.69994
lhand -14.6301 1.13671
lfingers 7.12502
lthumb 11.5215 30.8001
rfemur -52.7083 12.0182 -16.0299
rtibia 25.3828
rfoot 8.28676 -7.46724
rtoes 23.8168
lfemur -13.208 17.5276 -10.7779
ltibia 48.1534
lfoot -26.5167 12.9976
ltoes 29.1893
596
root 2.46855 16.571 6.8364 -17.5541 25.8884 -15.0598
lowerback 11.5955 -1.94463 -2.1358
upperback 3.03132 -2.57848 5.46749
thorax -2.96262 -1.26827 7.3353
lowerneck -10.6809 -1.11756 7.23314
upperneck 11.1417 -1.82158 -6.51666
head 4.96188 -1.02406 -3.35074
rclavicle 1.1427e-014 -4.05521e-014
rhumerus -34.9247 18.0855 -86.4162
rradius 81.8364
rwrist 15.897
rhand -30.8903 -24.5356
rfingers 7.12502
rthumb -4.17725 305.526
lclavicle 1.1427e-014 -4.05521e-014
lhumerus -44.6479 0.995706 84.9098
lradius 36.5163
lwrist 8.72583
lhand -14.7732 1.0406
lfingers 7.12502
lthumb 11.3835 30.7116
rfemur -52.4434 8.17033 -12.8473
rtibia 26.215
rfoot 8.36172 -3.84753
rtoes 12.781
lfemur -12.6198 16.5124 -9.67103
ltibia 48.5934
lfoot -26.7323 12.911
ltoes 28.1895
597
root 2.45476 16.5583 6.92766 -18.7732 26.8648 -16.1392
lowerback 12.1607 -1.89258 -1.94588
upperback 3.19712 -2.46108 5.87023
thorax -3.10361 -1.20655 7.67347
lowerneck -10.9157 -1.36215 7.03208
upperneck 11.0047 -2.1267 -6.61563
head 4.93779 -1.19289 -3.3705
rclavicle 1.63858e-014 -6.67916e-014
rhumerus -34.279 18.3163 -86.4932
rradius 81.425
rwrist 16.114
rhand -30.7496 -23.9088
rfingers 7.12502
rthumb -4.04136 306.15
lclavicle 1.63858e-014 -6.67916e-014
lhumerus -43.7493 0.717986 85.5123
lradius 36.5173
lwrist 8.95063
lhand -15.059 1.00741
lfingers 7.12502
lthumb 11.1078 30.6934
rfemur -52.5301 4.94815 -10.1038
rtibia 27.7429
rfoot 8.77993 -1.00715
rtoes 2.28114
lfemur -11.996 15.5515 -8.51364
ltibia 48.9796
lfoot -26.9555 12.7825
ltoes 27.1544
598
root 2.43617 16.551 7.02142 -19.9587 27.8614 -17.2456
lowerback 12.6105 -1.80342 -1.84103
upperback 3.33574 -2.30275 6.25315
thorax -3.21333 -1.12416 8.02967
lowerneck -11.1693 -1.66465 6.84274
upperneck 10.9695 -2.52272 -6.60608
head 4.94356 -1.39801 -3.36649
rclavicle 4.15522e-014 -4.41302e-014
rhumerus -33.6817 18.3991 -86.5955
rradius 80.9066
rwrist 16.4267
rhand -30.5797 -23.1876
rfingers 7.12502
rthumb -3.87723 306.868
lclavicle 4.15522e-014 -4.41302e-014
lhumerus -42.7825 0.300594 86.141
lradius 36.4348
lwrist 9.34006
lhand -15.4475 1.04009
lfingers 7.12502
lthumb 10.7331 30.7459
rfemur -52.8804 2.67459 -8.20087
rtibia 29.8734
rfoot 9.4425 0.759194
rtoes -6.43558
lfemur -11.4416 14.6063 -7.37286
ltibia 49.2821
lfoot -27.1412 12.616
ltoes 26.0601
599
root 2.4139 16.5498 7.11684 -21.06 28.9877 -18.3264
lowerback 12.9238 -1.69197 -1.87239
upperback 3.42711 -2.13336 6.59096
thorax -3.29747 -1.03548 8.40976
lowerneck -11.4525 -2.03694 6.62869
upperneck 11.0481 -3.02423 -6.45449
head 4.9858 -1.64572 -3.32415
rclavicle 3.71502e-014 -2.94201e-014
rhumerus -33.1578 18.2794 -86.7277
rradius 80.2966
rwrist 16.8046
rhand -30.3541 -22.5077
rfingers 7.12502
rthumb -3.65941 307.544
lclavicle 3.71502e-014 -2.94201e-014
lhumerus -41.7111 -0.274443 86.7994
lradius 36.2288
lwrist 9.80909
lhand -15.8489 1.06665
lfingers 7.12502
lthumb 10.346 30.7921
rfemur -53.366 1.23101 -7.21065
rtibia 32.5108
rfoot 10.3002 1.85108
rtoes -10.8917
lfemur -11.0248 13.6169 -6.36611
ltibia 49.4955
lfoot -27.2615 12.4237
ltoes 24.8873
600
root 2.38709 16.5547 7.21424 -22.0655 30.3613 -19.4179
lowerback 13.115 -1.59053 -2.01328
upperback 3.43064 -1.99393 6.85759
thorax -3.40357 -0.958815 8.77792
lowerneck -11.758 -2.49034 6.36378
upperneck 11.245 -3.64756 -6.11877
head 5.06696 -1.94138 -3.22787
rclavicle -9.37715e-014 1.47101e-014
rhumerus -32.7913 17.8941 -86.9401
rradius 79.6459
rwrist 17.2284
rhand -29.9879 -21.9834
rfingers 7.12502
rthumb -3.30579 308.062
lclavicle -9.37715e-014 1.47101e-014
lhumerus -40.5321 -1.03615 87.4519
lradius 35.8685
lwrist 10.2186
lhand -16.2097 1.07544
lfingers 7.12502
lthumb 9.99788 30.818
rfemur -53.895 0.324624 -6.99669
rtibia 35.5543
rfoot 11.2984 2.71909
rtoes -12.2527
lfemur -10.846 12.5237 -5.52021
ltibia 49.6468
lfoot -27.2883 12.1902
ltoes 23.5865
601
root 2.35611 16.5649 7.31464 -23.0312 32.057 -20.5944
lowerback 13.1966 -1.52549 -2.2382
upperback 3.34952 -1.91617 7.06741
thorax -3.53 -0.909853 9.14061
lowerneck -12.0675 -3.03017 6.01908
upperneck 11.5173 -4.39642 -5.59895
head 5.17482 -2.2869 -3.07311
rclavicle 3.07864e-014 -2.38542e-014
rhumerus -32.605 17.225 -87.1966
rradius 79.0043
rwrist 17.6372
rhand -29.437 -21.6302
rfingers 7.12502
rthumb -2.77376 308.408
lclavicle 3.07864e-014 -2.38542e-014
lhumerus -39.2141 -1.95403 88.0974
lradius 35.3376
lwrist 10.4317
lhand -16.4094 1.04265
lfingers 7.12502
lthumb 9.80518 30.7944
rfemur -54.3588 -0.373773 -7.3112
rtibia 38.887
rfoot 12.3972 3.76624
rtoes -11.2082
lfemur -10.9501 11.2893 -4.80179
ltibia 49.7807
lfoot -27.2233 11.8918
ltoes 22.0978
602
root 2.32163 16.5787 7.41843 -23.9963 34.0934 -21.941
lowerback 13.1715 -1.51359 -2.48045
upperback 3.17576 -1.91303 7.22443
thorax -3.68573 -0.894469 9.46521
lowerneck -12.3686 -3.66009 5.57005
upperneck 11.8272 -5.27344 -4.89242
head 5.30118 -2.68335 -2.85557
rclavicle -2.65164e-014 6.55989e-014
rhumerus -32.6171 16.293 -87.4869
rradius 78.416
rwrist 17.8947
rhand -28.679 -21.4571
rfingers 7.12502
rthumb -2.04165 308.573
lclavicle -2.65164e-014 6.55989e-014
lhumerus -37.7521 -3.01092 88.7209
lradius 34.6452
lwrist 10.3031
lhand -16.3306 0.991007
lfingers 7.12502
lthumb 9.88122 30.7391
rfemur -54.7068 -1.08686 -7.95667
rtibia 42.3964
rfoot 13.5809 5.15429
rtoes -8.42452
lfemur -11.4011 9.93415 -4.15509
ltibia 49.9422
lfoot -27.0757 11.4856
ltoes 20.403
